Coordinates
version=1
nRows=11
nColumns=40
inDegrees=yes

Units are S.I. units (second, meters, Newtons, ...)
If the header above contains a line with 'inDegrees', this indicates whether rotational values are in degrees (yes) or radians (no).

endheader
time	pelvis_tilt	pelvis_list	pelvis_rotation	pelvis_tx	pelvis_ty	pelvis_tz	hip_flexion_r	hip_adduction_r	hip_rotation_r	knee_angle_r	knee_angle_r_beta	ankle_angle_r	subtalar_angle_r	mtp_angle_r	hip_flexion_l	hip_adduction_l	hip_rotation_l	knee_angle_l	knee_angle_l_beta	ankle_angle_l	subtalar_angle_l	mtp_angle_l	lumbar_extension	lumbar_bending	lumbar_rotation	arm_flex_r	arm_add_r	arm_rot_r	elbow_flex_r	pro_sup_r	wrist_flex_r	wrist_dev_r	arm_flex_l	arm_add_l	arm_rot_l	elbow_flex_l	pro_sup_l	wrist_flex_l	wrist_dev_l
      4.96000000	      1.33754372	     -0.45339206	    -89.32892291	      1.21212770	      0.94416507	      0.29471579	     -0.55309619	     -5.38845855	    -18.89444329	      6.69311911	      0.11681697	      1.61566921	      5.39442724	      0.00000000	      0.03412680	     -2.60274535	    -22.06895292	      8.48360779	      0.14806689	      2.75122390	     14.13774178	      0.00000000	      2.06697870	      0.57627668	     -3.07449794	     44.99992434	    -14.99999999	     44.99992434	     75.00017585	     45.00000026	      0.00000000	      0.00000000	     44.99992434	    -14.99999999	     44.99992434	     75.00017585	     45.00000026	      0.00000000	      0.00000000
      4.96500000	      1.40841285	     -0.45585690	    -89.32767633	      1.21212570	      0.94415943	      0.29483827	     -0.53839217	     -5.49028308	    -18.98480637	      6.75821214	      0.11795305	      1.64978554	      5.55891225	      0.00000000	     -0.00386244	     -2.49791006	    -21.97259085	      8.41154454	      0.14680915	      2.71401448	     13.99825268	      0.00000000	      2.09242183	      0.32591936	     -3.38848820	     44.99992434	    -14.99999999	     44.99992434	     75.00017585	     45.00000026	      0.00000000	      0.00000000	     44.99992434	    -14.99999999	     44.99992434	     75.00017585	     45.00000026	      0.00000000	      0.00000000
      4.97000000	      1.42373857	     -0.45677009	    -89.34166738	      1.21207045	      0.94412574	      0.29495869	     -0.50726505	     -5.52789590	    -19.07569740	      6.84894889	      0.11953671	      1.73784800	      5.70602463	      0.00000000	     -0.00686604	     -2.48823267	    -22.00806643	      8.42821051	      0.14710002	      2.71600892	     14.04394843	      0.00000000	      2.11435945	      0.61231987	     -2.85916900	     44.99992434	    -14.99999999	     44.99992434	     75.00017585	     45.00000026	      0.00000000	      0.00000000	     44.99992434	    -14.99999999	     44.99992434	     75.00017585	     45.00000026	      0.00000000	      0.00000000
      4.97500000	      1.46006545	     -0.44980315	    -89.34042324	      1.21205106	      0.94411958	      0.29504567	     -0.50017660	     -5.56996949	    -19.08518957	      6.86014290	      0.11973208	      1.74697875	      5.73412341	      0.00000000	     -0.01729604	     -2.43123318	    -21.91558641	      8.40098707	      0.14662488	      2.73097994	     13.86682454	      0.00000000	      2.14978888	      0.50764123	     -2.98244408	     44.99992434	    -14.99999999	     44.99992434	     75.00017585	     45.00000026	      0.00000000	      0.00000000	     44.99992434	    -14.99999999	     44.99992434	     75.00017585	     45.00000026	      0.00000000	      0.00000000
      4.98000000	      1.43889877	     -0.44115193	    -89.33871919	      1.21203531	      0.94408277	      0.29517525	     -0.50320800	     -5.54536265	    -19.08062347	      6.86002788	      0.11973007	      1.77564849	      5.72197191	      0.00000000	      0.03685587	     -2.50160704	    -22.10013780	      8.52988677	      0.14887461	      2.76543122	     14.18243557	      0.00000000	      2.16028924	      0.09592537	     -3.74652930	     44.99992434	    -14.99999999	     44.99992434	     75.00017585	     45.00000026	      0.00000000	      0.00000000	     44.99992434	    -14.99999999	     44.99992434	     75.00017585	     45.00000026	      0.00000000	      0.00000000
      4.98500000	      1.37002345	     -0.46135322	    -89.34589479	      1.21198467	      0.94415948	      0.29524707	     -0.58939583	     -5.42607480	    -18.92797529	      6.71261520	      0.11715724	      1.67775681	      5.50792209	      0.00000000	     -0.01186757	     -2.56221473	    -21.99514107	      8.47612654	      0.14793632	      2.77365236	     14.01242181	      0.00000000	      2.14449530	      0.45601081	     -3.29846738	     44.99992434	    -14.99999999	     44.99992434	     75.00017585	     45.00000026	      0.00000000	      0.00000000	     44.99992434	    -14.99999999	     44.99992434	     75.00017585	     45.00000026	      0.00000000	      0.00000000
      4.99000000	      1.37495628	     -0.46690888	    -89.35811754	      1.21193261	      0.94415300	      0.29532381	     -0.58223969	     -5.43995522	    -18.97086016	      6.75334756	      0.11786815	      1.71042727	      5.57699507	      0.00000000	     -0.02126018	     -2.56138219	    -22.00356601	      8.48956490	      0.14817086	      2.78638970	     14.03012963	      0.00000000	      2.15828319	      0.58397301	     -3.08147760	     44.99992434	    -14.99999999	     44.99992434	     75.00017585	     45.00000026	      0.00000000	      0.00000000	     44.99992434	    -14.99999999	     44.99992434	     75.00017585	     45.00000026	      0.00000000	      0.00000000
      4.99500000	      1.46339763	     -0.44805247	    -89.35216715	      1.21193371	      0.94409065	      0.29545315	     -0.53850910	     -5.56380225	    -19.06735102	      6.83558399	      0.11930345	      1.82084762	      5.72288723	      0.00000000	     -0.02978245	     -2.44310000	    -21.93068276	      8.42910315	      0.14711560	      2.71679105	     13.89443029	      0.00000000	      2.21373333	      0.39328864	     -3.19957129	     44.99992434	    -14.99999999	     44.99992434	     75.00017585	     45.00000026	      0.00000000	      0.00000000	     44.99992434	    -14.99999999	     44.99992434	     75.00017585	     45.00000026	      0.00000000	      0.00000000
      5.00000000	      1.39260158	     -0.48140203	    -89.36190825	      1.21189040	      0.94415520	      0.29549837	     -0.59777905	     -5.46700069	    -19.00239695	      6.78090427	      0.11834911	      1.72894080	      5.64267645	      0.00000000	     -0.03981932	     -2.54622167	    -22.00817844	      8.50870146	      0.14850486	      2.78990607	     14.02237068	      0.00000000	      2.17708747	      0.53408417	     -3.16402470	     44.99992434	    -14.99999999	     44.99992434	     75.00017585	     45.00000026	      0.00000000	      0.00000000	     44.99992434	    -14.99999999	     44.99992434	     75.00017585	     45.00000026	      0.00000000	      0.00000000
      5.00500000	      1.33713004	     -0.49659620	    -89.36547746	      1.21185754	      0.94421469	      0.29555591	     -0.67513961	     -5.36646311	    -18.84379514	      6.64859737	      0.11603991	      1.66388314	      5.42244576	      0.00000000	     -0.06126461	     -2.60770901	    -21.97937530	      8.50819336	      0.14849599	      2.81481131	     13.96074143	      0.00000000	      2.14758839	      0.45736934	     -3.45809982	     44.99992434	    -14.99999999	     44.99992434	     75.00017585	     45.00000026	      0.00000000	      0.00000000	     44.99992434	    -14.99999999	     44.99992434	     75.00017585	     45.00000026	      0.00000000	      0.00000000
      5.01000000	      1.35247332	     -0.50149608	    -89.36696843	      1.21184265	      0.94420378	      0.29564080	     -0.69212214	     -5.37932332	    -18.82890662	      6.63626193	      0.11582462	      1.66190946	      5.40679654	      0.00000000	     -0.06489710	     -2.59559574	    -21.99837607	      8.52631333	      0.14881224	      2.83820016	     13.97000279	      0.00000000	      2.14931803	      0.34770498	     -3.63654067	     44.99992434	    -14.99999999	     44.99992434	     75.00017585	     45.00000026	      0.00000000	      0.00000000	     44.99992434	    -14.99999999	     44.99992434	     75.00017585	     45.00000026	      0.00000000	      0.00000000
